<mxfile host="app.diagrams.net" modified="2024-06-12T07:34:31.101Z" agent="Mozilla/5.0 (X11; Linux x86_64; rv:126.0) Gecko/20100101 Firefox/126.0" version="24.5.3" etag="LXhNEqon-IW474K6-11T" type="github">
  <diagram name="Page-1" id="sGv7fdSRm28dCt9n_yXu">
    <mxGraphModel>
      <root>
        <mxCell id="0" />
        <mxCell id="1" parent="0" />
      </root>
    </mxGraphModel>
  </diagram>
</mxfile>
